<mxfile host="app.diagrams.net" modified="2023-03-13T14:01:08.827Z" agent="5.0 (Windows NT 10.0; Win64; x64) AppleWebKit/537.36 (KHTML, like Gecko) Chrome/110.0.0.0 Safari/537.36 Edg/110.0.1587.69" etag="FUukUaXjzDJfqhS13zw3" version="21.0.6" type="github">
  <diagram name="第 1 页" id="OHGuPn-d5w2FWo_r6tZb">
    <mxGraphModel dx="1004" dy="581" grid="1" gridSize="10" guides="1" tooltips="1" connect="1" arrows="1" fold="1" page="1" pageScale="1" pageWidth="827" pageHeight="1169" math="0" shadow="0">
      <root>
        <mxCell id="0" />
        <mxCell id="1" parent="0" />
        <mxCell id="tAnxP0xCC-zVScOfMBCG-1" value="&lt;font size=&quot;1&quot; style=&quot;&quot;&gt;&lt;b style=&quot;font-size: 18px;&quot;&gt;用户应用&lt;/b&gt;&lt;/font&gt;" style="rounded=0;whiteSpace=wrap;html=1;" vertex="1" parent="1">
          <mxGeometry x="150" y="100" width="450" height="50" as="geometry" />
        </mxCell>
        <mxCell id="tAnxP0xCC-zVScOfMBCG-3" style="edgeStyle=orthogonalEdgeStyle;rounded=1;orthogonalLoop=1;jettySize=auto;html=1;exitX=0.25;exitY=0;exitDx=0;exitDy=0;entryX=0.189;entryY=1;entryDx=0;entryDy=0;entryPerimeter=0;shape=connector;startArrow=classic;" edge="1" parent="1" source="tAnxP0xCC-zVScOfMBCG-2" target="tAnxP0xCC-zVScOfMBCG-1">
          <mxGeometry relative="1" as="geometry" />
        </mxCell>
        <mxCell id="tAnxP0xCC-zVScOfMBCG-4" style="edgeStyle=orthogonalEdgeStyle;rounded=1;orthogonalLoop=1;jettySize=auto;html=1;exitX=0.75;exitY=0;exitDx=0;exitDy=0;entryX=0.833;entryY=1;entryDx=0;entryDy=0;entryPerimeter=0;shape=connector;startArrow=classic;" edge="1" parent="1" source="tAnxP0xCC-zVScOfMBCG-2" target="tAnxP0xCC-zVScOfMBCG-1">
          <mxGeometry relative="1" as="geometry" />
        </mxCell>
        <mxCell id="tAnxP0xCC-zVScOfMBCG-2" value="" style="rounded=0;whiteSpace=wrap;html=1;" vertex="1" parent="1">
          <mxGeometry x="90" y="210" width="580" height="90" as="geometry" />
        </mxCell>
        <mxCell id="tAnxP0xCC-zVScOfMBCG-5" value="&lt;b&gt;文件I/O&lt;/b&gt;" style="text;html=1;strokeColor=none;fillColor=none;align=center;verticalAlign=middle;whiteSpace=wrap;rounded=0;" vertex="1" parent="1">
          <mxGeometry x="230" y="166" width="60" height="30" as="geometry" />
        </mxCell>
        <mxCell id="tAnxP0xCC-zVScOfMBCG-6" value="&lt;b&gt;文件I/O&lt;/b&gt;" style="text;html=1;strokeColor=none;fillColor=none;align=center;verticalAlign=middle;whiteSpace=wrap;rounded=0;" vertex="1" parent="1">
          <mxGeometry x="519" y="166" width="60" height="30" as="geometry" />
        </mxCell>
        <mxCell id="tAnxP0xCC-zVScOfMBCG-7" value="" style="shape=table;startSize=0;container=1;collapsible=0;childLayout=tableLayout;" vertex="1" parent="1">
          <mxGeometry x="130" y="240" width="90" height="30" as="geometry" />
        </mxCell>
        <mxCell id="tAnxP0xCC-zVScOfMBCG-8" value="" style="shape=tableRow;horizontal=0;startSize=0;swimlaneHead=0;swimlaneBody=0;strokeColor=inherit;top=0;left=0;bottom=0;right=0;collapsible=0;dropTarget=0;fillColor=none;points=[[0,0.5],[1,0.5]];portConstraint=eastwest;" vertex="1" parent="tAnxP0xCC-zVScOfMBCG-7">
          <mxGeometry width="90" height="30" as="geometry" />
        </mxCell>
        <mxCell id="tAnxP0xCC-zVScOfMBCG-9" value="" style="shape=partialRectangle;html=1;whiteSpace=wrap;connectable=0;strokeColor=inherit;overflow=hidden;fillColor=none;top=0;left=0;bottom=0;right=0;pointerEvents=1;" vertex="1" parent="tAnxP0xCC-zVScOfMBCG-8">
          <mxGeometry width="23" height="30" as="geometry">
            <mxRectangle width="23" height="30" as="alternateBounds" />
          </mxGeometry>
        </mxCell>
        <mxCell id="tAnxP0xCC-zVScOfMBCG-10" value="" style="shape=partialRectangle;html=1;whiteSpace=wrap;connectable=0;strokeColor=inherit;overflow=hidden;fillColor=none;top=0;left=0;bottom=0;right=0;pointerEvents=1;" vertex="1" parent="tAnxP0xCC-zVScOfMBCG-8">
          <mxGeometry x="23" width="22" height="30" as="geometry">
            <mxRectangle width="22" height="30" as="alternateBounds" />
          </mxGeometry>
        </mxCell>
        <mxCell id="tAnxP0xCC-zVScOfMBCG-11" value="" style="shape=partialRectangle;html=1;whiteSpace=wrap;connectable=0;strokeColor=inherit;overflow=hidden;fillColor=none;top=0;left=0;bottom=0;right=0;pointerEvents=1;" vertex="1" parent="tAnxP0xCC-zVScOfMBCG-8">
          <mxGeometry x="45" width="23" height="30" as="geometry">
            <mxRectangle width="23" height="30" as="alternateBounds" />
          </mxGeometry>
        </mxCell>
        <mxCell id="tAnxP0xCC-zVScOfMBCG-12" value="" style="shape=partialRectangle;html=1;whiteSpace=wrap;connectable=0;strokeColor=inherit;overflow=hidden;fillColor=none;top=0;left=0;bottom=0;right=0;pointerEvents=1;" vertex="1" parent="tAnxP0xCC-zVScOfMBCG-8">
          <mxGeometry x="68" width="22" height="30" as="geometry">
            <mxRectangle width="22" height="30" as="alternateBounds" />
          </mxGeometry>
        </mxCell>
        <mxCell id="tAnxP0xCC-zVScOfMBCG-13" value="&lt;b&gt;路径名&lt;/b&gt;" style="text;html=1;strokeColor=none;fillColor=none;align=center;verticalAlign=middle;whiteSpace=wrap;rounded=0;" vertex="1" parent="1">
          <mxGeometry x="145" y="210" width="60" height="30" as="geometry" />
        </mxCell>
        <mxCell id="tAnxP0xCC-zVScOfMBCG-14" value="" style="rounded=0;whiteSpace=wrap;html=1;" vertex="1" parent="1">
          <mxGeometry x="90" y="320" width="580" height="170" as="geometry" />
        </mxCell>
        <mxCell id="tAnxP0xCC-zVScOfMBCG-23" style="edgeStyle=orthogonalEdgeStyle;rounded=1;orthogonalLoop=1;jettySize=auto;html=1;entryX=0.5;entryY=0;entryDx=0;entryDy=0;startArrow=classic;" edge="1" parent="1" target="tAnxP0xCC-zVScOfMBCG-22">
          <mxGeometry relative="1" as="geometry">
            <mxPoint x="202" y="270" as="sourcePoint" />
          </mxGeometry>
        </mxCell>
        <mxCell id="tAnxP0xCC-zVScOfMBCG-17" style="edgeStyle=orthogonalEdgeStyle;rounded=1;orthogonalLoop=1;jettySize=auto;html=1;exitX=1;exitY=0.5;exitDx=0;exitDy=0;entryX=0;entryY=0.5;entryDx=0;entryDy=0;startArrow=classic;endArrow=none;endFill=0;" edge="1" parent="1">
          <mxGeometry relative="1" as="geometry">
            <mxPoint x="478" y="244" as="sourcePoint" />
            <mxPoint x="530" y="244" as="targetPoint" />
          </mxGeometry>
        </mxCell>
        <mxCell id="tAnxP0xCC-zVScOfMBCG-35" style="edgeStyle=orthogonalEdgeStyle;rounded=1;orthogonalLoop=1;jettySize=auto;html=1;exitX=0.75;exitY=1;exitDx=0;exitDy=0;entryX=0.298;entryY=-0.005;entryDx=0;entryDy=0;entryPerimeter=0;startArrow=classic;" edge="1" parent="1" source="tAnxP0xCC-zVScOfMBCG-15" target="tAnxP0xCC-zVScOfMBCG-26">
          <mxGeometry relative="1" as="geometry" />
        </mxCell>
        <mxCell id="tAnxP0xCC-zVScOfMBCG-15" value="&lt;font size=&quot;1&quot; style=&quot;&quot;&gt;&lt;b style=&quot;font-size: 19px;&quot;&gt;协同路径遍历&lt;/b&gt;&lt;/font&gt;" style="rounded=0;whiteSpace=wrap;html=1;" vertex="1" parent="1">
          <mxGeometry x="272" y="225" width="206" height="60" as="geometry" />
        </mxCell>
        <mxCell id="tAnxP0xCC-zVScOfMBCG-16" value="&lt;font style=&quot;font-size: 19px;&quot;&gt;&lt;b&gt;目录树&lt;/b&gt;&lt;/font&gt;" style="rounded=0;whiteSpace=wrap;html=1;fillColor=#f5f5f5;fontColor=#333333;strokeColor=#666666;" vertex="1" parent="1">
          <mxGeometry x="530" y="230" width="100" height="50" as="geometry" />
        </mxCell>
        <mxCell id="tAnxP0xCC-zVScOfMBCG-18" style="edgeStyle=orthogonalEdgeStyle;rounded=0;orthogonalLoop=1;jettySize=auto;html=1;exitX=1;exitY=0.5;exitDx=0;exitDy=0;entryX=0;entryY=0.5;entryDx=0;entryDy=0;" edge="1" parent="1" source="tAnxP0xCC-zVScOfMBCG-8" target="tAnxP0xCC-zVScOfMBCG-15">
          <mxGeometry relative="1" as="geometry" />
        </mxCell>
        <mxCell id="tAnxP0xCC-zVScOfMBCG-19" style="rounded=1;orthogonalLoop=1;jettySize=auto;html=1;exitX=1;exitY=0.5;exitDx=0;exitDy=0;entryX=0;entryY=0.5;entryDx=0;entryDy=0;startArrow=none;edgeStyle=orthogonalEdgeStyle;curved=1;startFill=0;" edge="1" parent="1">
          <mxGeometry relative="1" as="geometry">
            <mxPoint x="478" y="270" as="sourcePoint" />
            <mxPoint x="530" y="270" as="targetPoint" />
          </mxGeometry>
        </mxCell>
        <mxCell id="tAnxP0xCC-zVScOfMBCG-21" value="&lt;b&gt;协同&lt;/b&gt;" style="text;html=1;strokeColor=none;fillColor=none;align=center;verticalAlign=middle;whiteSpace=wrap;rounded=0;" vertex="1" parent="1">
          <mxGeometry x="474" y="270" width="60" height="30" as="geometry" />
        </mxCell>
        <mxCell id="tAnxP0xCC-zVScOfMBCG-25" style="edgeStyle=orthogonalEdgeStyle;rounded=0;orthogonalLoop=1;jettySize=auto;html=1;entryX=0.5;entryY=0;entryDx=0;entryDy=0;" edge="1" parent="1" source="tAnxP0xCC-zVScOfMBCG-22" target="tAnxP0xCC-zVScOfMBCG-24">
          <mxGeometry relative="1" as="geometry" />
        </mxCell>
        <mxCell id="tAnxP0xCC-zVScOfMBCG-22" value="&lt;font size=&quot;1&quot; style=&quot;&quot;&gt;&lt;b style=&quot;font-size: 16px;&quot;&gt;快速索引目录树&lt;/b&gt;&lt;/font&gt;" style="rounded=0;whiteSpace=wrap;html=1;" vertex="1" parent="1">
          <mxGeometry x="130" y="370" width="143" height="60" as="geometry" />
        </mxCell>
        <mxCell id="tAnxP0xCC-zVScOfMBCG-24" value="&lt;font style=&quot;font-size: 20px;&quot;&gt;&lt;b&gt;DRAM&lt;/b&gt;&lt;/font&gt;" style="rounded=0;whiteSpace=wrap;html=1;" vertex="1" parent="1">
          <mxGeometry x="142" y="510" width="120" height="60" as="geometry" />
        </mxCell>
        <mxCell id="tAnxP0xCC-zVScOfMBCG-26" value="" style="rounded=0;whiteSpace=wrap;html=1;dashed=1;" vertex="1" parent="1">
          <mxGeometry x="340" y="348" width="290" height="110" as="geometry" />
        </mxCell>
        <mxCell id="tAnxP0xCC-zVScOfMBCG-31" style="rounded=1;orthogonalLoop=1;jettySize=auto;html=1;entryX=1;entryY=0.5;entryDx=0;entryDy=0;exitX=0;exitY=0.5;exitDx=0;exitDy=0;startArrow=classic;" edge="1" parent="1" source="tAnxP0xCC-zVScOfMBCG-27" target="tAnxP0xCC-zVScOfMBCG-22">
          <mxGeometry relative="1" as="geometry">
            <mxPoint x="370" y="406.2615989395256" as="sourcePoint" />
            <mxPoint x="276.8609999999999" y="408.22" as="targetPoint" />
          </mxGeometry>
        </mxCell>
        <mxCell id="tAnxP0xCC-zVScOfMBCG-40" style="edgeStyle=orthogonalEdgeStyle;rounded=0;orthogonalLoop=1;jettySize=auto;html=1;exitX=1;exitY=0.5;exitDx=0;exitDy=0;entryX=0;entryY=0.5;entryDx=0;entryDy=0;" edge="1" parent="1" source="tAnxP0xCC-zVScOfMBCG-27" target="tAnxP0xCC-zVScOfMBCG-34">
          <mxGeometry relative="1" as="geometry" />
        </mxCell>
        <mxCell id="tAnxP0xCC-zVScOfMBCG-27" value="" style="rounded=0;whiteSpace=wrap;html=1;fillColor=#bababa;fontColor=#333333;strokeColor=#666666;" vertex="1" parent="1">
          <mxGeometry x="370" y="355" width="120" height="90" as="geometry" />
        </mxCell>
        <mxCell id="tAnxP0xCC-zVScOfMBCG-28" value="&lt;font size=&quot;1&quot; style=&quot;&quot;&gt;&lt;b style=&quot;font-size: 18px;&quot;&gt;分级存储优化管理&lt;/b&gt;&lt;/font&gt;" style="text;html=1;strokeColor=none;fillColor=none;align=center;verticalAlign=middle;whiteSpace=wrap;rounded=0;" vertex="1" parent="1">
          <mxGeometry x="194" y="320" width="220" height="30" as="geometry" />
        </mxCell>
        <mxCell id="tAnxP0xCC-zVScOfMBCG-29" value="&lt;b&gt;&lt;font style=&quot;font-size: 14px;&quot;&gt;元数据&lt;/font&gt;&lt;/b&gt;" style="text;html=1;strokeColor=none;fillColor=none;align=center;verticalAlign=middle;whiteSpace=wrap;rounded=0;" vertex="1" parent="1">
          <mxGeometry x="370" y="355" width="60" height="30" as="geometry" />
        </mxCell>
        <mxCell id="tAnxP0xCC-zVScOfMBCG-32" value="&lt;font style=&quot;font-size: 20px;&quot;&gt;&lt;b&gt;NVM&lt;/b&gt;&lt;/font&gt;" style="rounded=0;whiteSpace=wrap;html=1;" vertex="1" parent="1">
          <mxGeometry x="320" y="510" width="310" height="60" as="geometry" />
        </mxCell>
        <mxCell id="tAnxP0xCC-zVScOfMBCG-34" value="&lt;b&gt;&lt;font style=&quot;font-size: 16px;&quot;&gt;选择性记录&lt;/font&gt;&lt;/b&gt;" style="rounded=0;whiteSpace=wrap;html=1;" vertex="1" parent="1">
          <mxGeometry x="519" y="370" width="91" height="60" as="geometry" />
        </mxCell>
        <mxCell id="tAnxP0xCC-zVScOfMBCG-36" value="&lt;b&gt;文件操作&lt;/b&gt;" style="text;html=1;strokeColor=none;fillColor=none;align=center;verticalAlign=middle;whiteSpace=wrap;rounded=0;" vertex="1" parent="1">
          <mxGeometry x="427" y="316" width="60" height="30" as="geometry" />
        </mxCell>
        <mxCell id="tAnxP0xCC-zVScOfMBCG-39" style="edgeStyle=orthogonalEdgeStyle;rounded=0;orthogonalLoop=1;jettySize=auto;html=1;exitX=0.5;exitY=1;exitDx=0;exitDy=0;entryX=0.5;entryY=0;entryDx=0;entryDy=0;" edge="1" parent="1" source="tAnxP0xCC-zVScOfMBCG-37" target="tAnxP0xCC-zVScOfMBCG-38">
          <mxGeometry relative="1" as="geometry" />
        </mxCell>
        <mxCell id="tAnxP0xCC-zVScOfMBCG-37" value="&lt;b&gt;开槽目录页&lt;/b&gt;" style="rounded=0;whiteSpace=wrap;html=1;fillColor=none;" vertex="1" parent="1">
          <mxGeometry x="390" y="380" width="80" height="25" as="geometry" />
        </mxCell>
        <mxCell id="tAnxP0xCC-zVScOfMBCG-38" value="&lt;b&gt;索引节点&lt;/b&gt;" style="rounded=0;whiteSpace=wrap;html=1;fillColor=none;" vertex="1" parent="1">
          <mxGeometry x="390" y="420" width="80" height="20" as="geometry" />
        </mxCell>
        <mxCell id="tAnxP0xCC-zVScOfMBCG-33" style="edgeStyle=orthogonalEdgeStyle;rounded=0;orthogonalLoop=1;jettySize=auto;html=1;entryX=0.355;entryY=0;entryDx=0;entryDy=0;entryPerimeter=0;exitX=0.5;exitY=1;exitDx=0;exitDy=0;" edge="1" parent="1" source="tAnxP0xCC-zVScOfMBCG-38" target="tAnxP0xCC-zVScOfMBCG-32">
          <mxGeometry relative="1" as="geometry" />
        </mxCell>
      </root>
    </mxGraphModel>
  </diagram>
</mxfile>
